<svg width="486" height="145" viewBox="0 0 486 145" fill="none" xmlns="http://www.w3.org/2000/svg">
<mask id="path-1-outside-1_203_5" maskUnits="userSpaceOnUse" x="0" y="0" width="486" height="145" fill="black">
<rect fill="white" width="486" height="145"/>
<path d="M2.00014 141.002V51.4015H15.5681L48.2081 104.522L41.6801 104.393L74.7041 51.4015H87.5041V141.002H73.6801V104.266C73.6801 96.5855 73.8508 89.6735 74.1921 83.5295C74.6188 77.3855 75.3015 71.2842 76.2401 65.2255L78.0321 69.9615L48.7201 115.273H40.2721L11.8561 70.4735L13.2641 65.2255C14.2028 70.9428 14.8428 76.8308 15.1841 82.8895C15.6108 88.8628 15.8241 95.9882 15.8241 104.266V141.002H2.00014Z"/>
<path d="M135.153 142.281C129.606 142.281 124.529 140.746 119.921 137.674C115.398 134.602 111.772 130.42 109.041 125.13C106.31 119.839 104.945 113.866 104.945 107.21C104.945 100.468 106.31 94.4948 109.041 89.2895C111.857 83.9988 115.612 79.8602 120.305 76.8735C125.084 73.8868 130.417 72.3935 136.305 72.3935C139.804 72.3935 143.004 72.9055 145.905 73.9295C148.806 74.9535 151.324 76.4042 153.457 78.2815C155.676 80.0735 157.468 82.1642 158.833 84.5535C160.284 86.9428 161.18 89.5028 161.521 92.2335L158.577 91.2095V73.8015H171.889V141.002H158.577V125.001L161.649 124.105C161.137 126.409 160.07 128.671 158.449 130.89C156.913 133.023 154.908 134.943 152.433 136.65C150.044 138.356 147.356 139.722 144.369 140.746C141.468 141.77 138.396 142.281 135.153 142.281ZM138.609 130.122C142.62 130.122 146.161 129.14 149.233 127.177C152.305 125.215 154.694 122.527 156.401 119.114C158.193 115.615 159.089 111.647 159.089 107.21C159.089 102.858 158.193 98.9748 156.401 95.5615C154.694 92.1482 152.305 89.4602 149.233 87.4975C146.161 85.5348 142.62 84.5535 138.609 84.5535C134.684 84.5535 131.185 85.5348 128.113 87.4975C125.126 89.4602 122.737 92.1482 120.945 95.5615C119.238 98.9748 118.385 102.858 118.385 107.21C118.385 111.647 119.238 115.615 120.945 119.114C122.737 122.527 125.126 125.215 128.113 127.177C131.185 129.14 134.684 130.122 138.609 130.122Z"/>
<path d="M212.599 142.281C207.82 142.281 203.639 141.172 200.055 138.954C196.556 136.735 193.826 133.62 191.863 129.609C189.986 125.599 189.047 120.82 189.047 115.273V73.8015H202.231V111.69C202.231 115.615 202.828 119.028 204.023 121.93C205.303 124.746 207.095 126.922 209.399 128.458C211.788 129.994 214.647 130.761 217.975 130.761C220.45 130.761 222.711 130.377 224.759 129.609C226.807 128.756 228.556 127.604 230.007 126.154C231.543 124.703 232.738 122.954 233.591 120.906C234.444 118.858 234.871 116.639 234.871 114.25V73.8015H248.055V141.002H234.871V126.922L237.175 125.385C236.151 128.543 234.402 131.402 231.927 133.962C229.538 136.522 226.679 138.57 223.351 140.106C220.023 141.556 216.439 142.281 212.599 142.281Z"/>
<path d="M266.803 141.002V2H279.987V141.002H266.803Z"/>
<path d="M302 141.002V51.4015H340.144C345.264 51.4015 349.957 52.6815 354.224 55.2415C358.576 57.7161 362.032 61.1295 364.592 65.4815C367.152 69.7482 368.432 74.5695 368.432 79.9455C368.432 84.8095 367.152 89.3322 364.592 93.5135C362.032 97.6948 358.619 101.065 354.352 103.625C350.085 106.1 345.349 107.337 340.144 107.337H315.824V141.002H302ZM355.456 141.002L191.456 2H207.956L371.456 141.002H355.456ZM315.824 94.0255H341.424C343.899 94.0255 346.117 93.4282 348.08 92.2335C350.043 90.9535 351.579 89.2468 352.688 87.1135C353.797 84.8948 354.352 82.4628 354.352 79.8175C354.352 76.8308 353.627 74.2282 352.176 72.0095C350.811 69.7055 348.848 67.9135 346.288 66.6335C343.813 65.3535 340.997 64.7135 337.84 64.7135H315.824V94.0255Z"/>
<path d="M411.028 142.281C405.481 142.281 400.404 140.746 395.796 137.674C391.273 134.602 387.647 130.42 384.916 125.13C382.185 119.839 380.82 113.866 380.82 107.21C380.82 100.468 382.185 94.4948 384.916 89.2895C387.732 83.9988 391.487 79.8602 396.18 76.8735C400.959 73.8868 406.292 72.3935 412.18 72.3935C415.679 72.3935 418.879 72.9055 421.78 73.9295C424.681 74.9535 427.199 76.4042 429.332 78.2815C431.551 80.0735 433.343 82.1642 434.708 84.5535C436.159 86.9428 437.055 89.5028 437.396 92.2335L434.452 91.2095V73.8015H447.764V141.002H434.452V125.001L437.524 124.105C437.012 126.409 435.945 128.671 434.324 130.89C432.788 133.023 430.783 134.943 428.308 136.65C425.919 138.356 423.231 139.722 420.244 140.746C417.343 141.77 414.271 142.281 411.028 142.281ZM414.484 130.122C418.495 130.122 422.036 129.14 425.108 127.177C428.18 125.215 430.569 122.527 432.276 119.114C434.068 115.615 434.964 111.647 434.964 107.21C434.964 102.858 434.068 98.9748 432.276 95.5615C430.569 92.1482 428.18 89.4602 425.108 87.4975C422.036 85.5348 418.495 84.5535 414.484 84.5535C410.559 84.5535 407.06 85.5348 403.988 87.4975C401.001 89.4602 398.612 92.1482 396.82 95.5615C395.113 98.9748 394.26 102.858 394.26 107.21C394.26 111.647 395.113 115.615 396.82 119.114C398.612 122.527 401.001 125.215 403.988 127.177C407.06 129.14 410.559 130.122 414.484 130.122Z"/>
<path d="M468.348 141.002V73.8015H481.532V141.002H468.348ZM474.748 58.9535C471.932 58.9535 469.756 58.2282 468.22 56.7775C466.684 55.3268 465.916 53.2788 465.916 50.6335C465.916 48.1588 466.684 46.1535 468.22 44.6175C469.841 43.0815 472.017 42.3135 474.748 42.3135C477.564 42.3135 479.74 43.0388 481.276 44.4895C482.812 45.9402 483.58 47.9881 483.58 50.6335C483.58 53.1081 482.769 55.1135 481.148 56.6495C479.612 58.1855 477.479 58.9535 474.748 58.9535Z"/>
<path d="M230.007 34.184L2 34.184L2 21L230.007 21V34.184Z"/>
</mask>
<path d="M2.00014 141.002V51.4015H15.5681L48.2081 104.522L41.6801 104.393L74.7041 51.4015H87.5041V141.002H73.6801V104.266C73.6801 96.5855 73.8508 89.6735 74.1921 83.5295C74.6188 77.3855 75.3015 71.2842 76.2401 65.2255L78.0321 69.9615L48.7201 115.273H40.2721L11.8561 70.4735L13.2641 65.2255C14.2028 70.9428 14.8428 76.8308 15.1841 82.8895C15.6108 88.8628 15.8241 95.9882 15.8241 104.266V141.002H2.00014Z" fill="url(#paint0_linear_203_5)"/>
<path d="M135.153 142.281C129.606 142.281 124.529 140.746 119.921 137.674C115.398 134.602 111.772 130.42 109.041 125.13C106.31 119.839 104.945 113.866 104.945 107.21C104.945 100.468 106.31 94.4948 109.041 89.2895C111.857 83.9988 115.612 79.8602 120.305 76.8735C125.084 73.8868 130.417 72.3935 136.305 72.3935C139.804 72.3935 143.004 72.9055 145.905 73.9295C148.806 74.9535 151.324 76.4042 153.457 78.2815C155.676 80.0735 157.468 82.1642 158.833 84.5535C160.284 86.9428 161.18 89.5028 161.521 92.2335L158.577 91.2095V73.8015H171.889V141.002H158.577V125.001L161.649 124.105C161.137 126.409 160.07 128.671 158.449 130.89C156.913 133.023 154.908 134.943 152.433 136.65C150.044 138.356 147.356 139.722 144.369 140.746C141.468 141.77 138.396 142.281 135.153 142.281ZM138.609 130.122C142.62 130.122 146.161 129.14 149.233 127.177C152.305 125.215 154.694 122.527 156.401 119.114C158.193 115.615 159.089 111.647 159.089 107.21C159.089 102.858 158.193 98.9748 156.401 95.5615C154.694 92.1482 152.305 89.4602 149.233 87.4975C146.161 85.5348 142.62 84.5535 138.609 84.5535C134.684 84.5535 131.185 85.5348 128.113 87.4975C125.126 89.4602 122.737 92.1482 120.945 95.5615C119.238 98.9748 118.385 102.858 118.385 107.21C118.385 111.647 119.238 115.615 120.945 119.114C122.737 122.527 125.126 125.215 128.113 127.177C131.185 129.14 134.684 130.122 138.609 130.122Z" fill="url(#paint1_linear_203_5)"/>
<path d="M212.599 142.281C207.82 142.281 203.639 141.172 200.055 138.954C196.556 136.735 193.826 133.62 191.863 129.609C189.986 125.599 189.047 120.82 189.047 115.273V73.8015H202.231V111.69C202.231 115.615 202.828 119.028 204.023 121.93C205.303 124.746 207.095 126.922 209.399 128.458C211.788 129.994 214.647 130.761 217.975 130.761C220.45 130.761 222.711 130.377 224.759 129.609C226.807 128.756 228.556 127.604 230.007 126.154C231.543 124.703 232.738 122.954 233.591 120.906C234.444 118.858 234.871 116.639 234.871 114.25V73.8015H248.055V141.002H234.871V126.922L237.175 125.385C236.151 128.543 234.402 131.402 231.927 133.962C229.538 136.522 226.679 138.57 223.351 140.106C220.023 141.556 216.439 142.281 212.599 142.281Z" fill="url(#paint2_linear_203_5)"/>
<path d="M266.803 141.002V2H279.987V141.002H266.803Z" fill="url(#paint3_linear_203_5)"/>
<path d="M302 141.002V51.4015H340.144C345.264 51.4015 349.957 52.6815 354.224 55.2415C358.576 57.7161 362.032 61.1295 364.592 65.4815C367.152 69.7482 368.432 74.5695 368.432 79.9455C368.432 84.8095 367.152 89.3322 364.592 93.5135C362.032 97.6948 358.619 101.065 354.352 103.625C350.085 106.1 345.349 107.337 340.144 107.337H315.824V141.002H302ZM355.456 141.002L191.456 2H207.956L371.456 141.002H355.456ZM315.824 94.0255H341.424C343.899 94.0255 346.117 93.4282 348.08 92.2335C350.043 90.9535 351.579 89.2468 352.688 87.1135C353.797 84.8948 354.352 82.4628 354.352 79.8175C354.352 76.8308 353.627 74.2282 352.176 72.0095C350.811 69.7055 348.848 67.9135 346.288 66.6335C343.813 65.3535 340.997 64.7135 337.84 64.7135H315.824V94.0255Z" fill="url(#paint4_linear_203_5)"/>
<path d="M411.028 142.281C405.481 142.281 400.404 140.746 395.796 137.674C391.273 134.602 387.647 130.42 384.916 125.13C382.185 119.839 380.82 113.866 380.82 107.21C380.82 100.468 382.185 94.4948 384.916 89.2895C387.732 83.9988 391.487 79.8602 396.18 76.8735C400.959 73.8868 406.292 72.3935 412.18 72.3935C415.679 72.3935 418.879 72.9055 421.78 73.9295C424.681 74.9535 427.199 76.4042 429.332 78.2815C431.551 80.0735 433.343 82.1642 434.708 84.5535C436.159 86.9428 437.055 89.5028 437.396 92.2335L434.452 91.2095V73.8015H447.764V141.002H434.452V125.001L437.524 124.105C437.012 126.409 435.945 128.671 434.324 130.89C432.788 133.023 430.783 134.943 428.308 136.65C425.919 138.356 423.231 139.722 420.244 140.746C417.343 141.77 414.271 142.281 411.028 142.281ZM414.484 130.122C418.495 130.122 422.036 129.14 425.108 127.177C428.18 125.215 430.569 122.527 432.276 119.114C434.068 115.615 434.964 111.647 434.964 107.21C434.964 102.858 434.068 98.9748 432.276 95.5615C430.569 92.1482 428.18 89.4602 425.108 87.4975C422.036 85.5348 418.495 84.5535 414.484 84.5535C410.559 84.5535 407.06 85.5348 403.988 87.4975C401.001 89.4602 398.612 92.1482 396.82 95.5615C395.113 98.9748 394.26 102.858 394.26 107.21C394.26 111.647 395.113 115.615 396.82 119.114C398.612 122.527 401.001 125.215 403.988 127.177C407.06 129.14 410.559 130.122 414.484 130.122Z" fill="url(#paint5_linear_203_5)"/>
<path d="M468.348 141.002V73.8015H481.532V141.002H468.348ZM474.748 58.9535C471.932 58.9535 469.756 58.2282 468.22 56.7775C466.684 55.3268 465.916 53.2788 465.916 50.6335C465.916 48.1588 466.684 46.1535 468.22 44.6175C469.841 43.0815 472.017 42.3135 474.748 42.3135C477.564 42.3135 479.74 43.0388 481.276 44.4895C482.812 45.9402 483.58 47.9881 483.58 50.6335C483.58 53.1081 482.769 55.1135 481.148 56.6495C479.612 58.1855 477.479 58.9535 474.748 58.9535Z" fill="url(#paint6_linear_203_5)"/>
<path d="M230.007 34.184L2 34.184L2 21L230.007 21V34.184Z" fill="url(#paint7_linear_203_5)"/>
<path d="M2.00014 141.002V51.4015H15.5681L48.2081 104.522L41.6801 104.393L74.7041 51.4015H87.5041V141.002H73.6801V104.266C73.6801 96.5855 73.8508 89.6735 74.1921 83.5295C74.6188 77.3855 75.3015 71.2842 76.2401 65.2255L78.0321 69.9615L48.7201 115.273H40.2721L11.8561 70.4735L13.2641 65.2255C14.2028 70.9428 14.8428 76.8308 15.1841 82.8895C15.6108 88.8628 15.8241 95.9882 15.8241 104.266V141.002H2.00014Z" stroke="url(#paint8_linear_203_5)" stroke-width="4" mask="url(#path-1-outside-1_203_5)"/>
<path d="M135.153 142.281C129.606 142.281 124.529 140.746 119.921 137.674C115.398 134.602 111.772 130.42 109.041 125.13C106.31 119.839 104.945 113.866 104.945 107.21C104.945 100.468 106.31 94.4948 109.041 89.2895C111.857 83.9988 115.612 79.8602 120.305 76.8735C125.084 73.8868 130.417 72.3935 136.305 72.3935C139.804 72.3935 143.004 72.9055 145.905 73.9295C148.806 74.9535 151.324 76.4042 153.457 78.2815C155.676 80.0735 157.468 82.1642 158.833 84.5535C160.284 86.9428 161.18 89.5028 161.521 92.2335L158.577 91.2095V73.8015H171.889V141.002H158.577V125.001L161.649 124.105C161.137 126.409 160.07 128.671 158.449 130.89C156.913 133.023 154.908 134.943 152.433 136.65C150.044 138.356 147.356 139.722 144.369 140.746C141.468 141.77 138.396 142.281 135.153 142.281ZM138.609 130.122C142.62 130.122 146.161 129.14 149.233 127.177C152.305 125.215 154.694 122.527 156.401 119.114C158.193 115.615 159.089 111.647 159.089 107.21C159.089 102.858 158.193 98.9748 156.401 95.5615C154.694 92.1482 152.305 89.4602 149.233 87.4975C146.161 85.5348 142.62 84.5535 138.609 84.5535C134.684 84.5535 131.185 85.5348 128.113 87.4975C125.126 89.4602 122.737 92.1482 120.945 95.5615C119.238 98.9748 118.385 102.858 118.385 107.21C118.385 111.647 119.238 115.615 120.945 119.114C122.737 122.527 125.126 125.215 128.113 127.177C131.185 129.14 134.684 130.122 138.609 130.122Z" stroke="url(#paint9_linear_203_5)" stroke-width="4" mask="url(#path-1-outside-1_203_5)"/>
<path d="M212.599 142.281C207.82 142.281 203.639 141.172 200.055 138.954C196.556 136.735 193.826 133.62 191.863 129.609C189.986 125.599 189.047 120.82 189.047 115.273V73.8015H202.231V111.69C202.231 115.615 202.828 119.028 204.023 121.93C205.303 124.746 207.095 126.922 209.399 128.458C211.788 129.994 214.647 130.761 217.975 130.761C220.45 130.761 222.711 130.377 224.759 129.609C226.807 128.756 228.556 127.604 230.007 126.154C231.543 124.703 232.738 122.954 233.591 120.906C234.444 118.858 234.871 116.639 234.871 114.25V73.8015H248.055V141.002H234.871V126.922L237.175 125.385C236.151 128.543 234.402 131.402 231.927 133.962C229.538 136.522 226.679 138.57 223.351 140.106C220.023 141.556 216.439 142.281 212.599 142.281Z" stroke="url(#paint10_linear_203_5)" stroke-width="4" mask="url(#path-1-outside-1_203_5)"/>
<path d="M266.803 141.002V2H279.987V141.002H266.803Z" stroke="url(#paint11_linear_203_5)" stroke-width="4" mask="url(#path-1-outside-1_203_5)"/>
<path d="M302 141.002V51.4015H340.144C345.264 51.4015 349.957 52.6815 354.224 55.2415C358.576 57.7161 362.032 61.1295 364.592 65.4815C367.152 69.7482 368.432 74.5695 368.432 79.9455C368.432 84.8095 367.152 89.3322 364.592 93.5135C362.032 97.6948 358.619 101.065 354.352 103.625C350.085 106.1 345.349 107.337 340.144 107.337H315.824V141.002H302ZM355.456 141.002L191.456 2H207.956L371.456 141.002H355.456ZM315.824 94.0255H341.424C343.899 94.0255 346.117 93.4282 348.08 92.2335C350.043 90.9535 351.579 89.2468 352.688 87.1135C353.797 84.8948 354.352 82.4628 354.352 79.8175C354.352 76.8308 353.627 74.2282 352.176 72.0095C350.811 69.7055 348.848 67.9135 346.288 66.6335C343.813 65.3535 340.997 64.7135 337.84 64.7135H315.824V94.0255Z" stroke="url(#paint12_linear_203_5)" stroke-width="4" mask="url(#path-1-outside-1_203_5)"/>
<path d="M411.028 142.281C405.481 142.281 400.404 140.746 395.796 137.674C391.273 134.602 387.647 130.42 384.916 125.13C382.185 119.839 380.82 113.866 380.82 107.21C380.82 100.468 382.185 94.4948 384.916 89.2895C387.732 83.9988 391.487 79.8602 396.18 76.8735C400.959 73.8868 406.292 72.3935 412.18 72.3935C415.679 72.3935 418.879 72.9055 421.78 73.9295C424.681 74.9535 427.199 76.4042 429.332 78.2815C431.551 80.0735 433.343 82.1642 434.708 84.5535C436.159 86.9428 437.055 89.5028 437.396 92.2335L434.452 91.2095V73.8015H447.764V141.002H434.452V125.001L437.524 124.105C437.012 126.409 435.945 128.671 434.324 130.89C432.788 133.023 430.783 134.943 428.308 136.65C425.919 138.356 423.231 139.722 420.244 140.746C417.343 141.77 414.271 142.281 411.028 142.281ZM414.484 130.122C418.495 130.122 422.036 129.14 425.108 127.177C428.18 125.215 430.569 122.527 432.276 119.114C434.068 115.615 434.964 111.647 434.964 107.21C434.964 102.858 434.068 98.9748 432.276 95.5615C430.569 92.1482 428.18 89.4602 425.108 87.4975C422.036 85.5348 418.495 84.5535 414.484 84.5535C410.559 84.5535 407.06 85.5348 403.988 87.4975C401.001 89.4602 398.612 92.1482 396.82 95.5615C395.113 98.9748 394.26 102.858 394.26 107.21C394.26 111.647 395.113 115.615 396.82 119.114C398.612 122.527 401.001 125.215 403.988 127.177C407.06 129.14 410.559 130.122 414.484 130.122Z" stroke="url(#paint13_linear_203_5)" stroke-width="4" mask="url(#path-1-outside-1_203_5)"/>
<path d="M468.348 141.002V73.8015H481.532V141.002H468.348ZM474.748 58.9535C471.932 58.9535 469.756 58.2282 468.22 56.7775C466.684 55.3268 465.916 53.2788 465.916 50.6335C465.916 48.1588 466.684 46.1535 468.22 44.6175C469.841 43.0815 472.017 42.3135 474.748 42.3135C477.564 42.3135 479.74 43.0388 481.276 44.4895C482.812 45.9402 483.58 47.9881 483.58 50.6335C483.58 53.1081 482.769 55.1135 481.148 56.6495C479.612 58.1855 477.479 58.9535 474.748 58.9535Z" stroke="url(#paint14_linear_203_5)" stroke-width="4" mask="url(#path-1-outside-1_203_5)"/>
<path d="M230.007 34.184L2 34.184L2 21L230.007 21V34.184Z" stroke="url(#paint15_linear_203_5)" stroke-width="4" mask="url(#path-1-outside-1_203_5)"/>
<defs>
<linearGradient id="paint0_linear_203_5" x1="276.456" y1="142" x2="276.456" y2="80" gradientUnits="userSpaceOnUse">
<stop stop-color="#1F1F1F"/>
<stop offset="1" stop-color="white"/>
</linearGradient>
<linearGradient id="paint1_linear_203_5" x1="276.456" y1="142" x2="276.456" y2="80" gradientUnits="userSpaceOnUse">
<stop stop-color="#1F1F1F"/>
<stop offset="1" stop-color="white"/>
</linearGradient>
<linearGradient id="paint2_linear_203_5" x1="276.456" y1="142" x2="276.456" y2="80" gradientUnits="userSpaceOnUse">
<stop stop-color="#1F1F1F"/>
<stop offset="1" stop-color="white"/>
</linearGradient>
<linearGradient id="paint3_linear_203_5" x1="276.456" y1="142" x2="276.456" y2="80" gradientUnits="userSpaceOnUse">
<stop stop-color="#1F1F1F"/>
<stop offset="1" stop-color="white"/>
</linearGradient>
<linearGradient id="paint4_linear_203_5" x1="276.456" y1="142" x2="276.456" y2="80" gradientUnits="userSpaceOnUse">
<stop stop-color="#1F1F1F"/>
<stop offset="1" stop-color="white"/>
</linearGradient>
<linearGradient id="paint5_linear_203_5" x1="276.456" y1="142" x2="276.456" y2="80" gradientUnits="userSpaceOnUse">
<stop stop-color="#1F1F1F"/>
<stop offset="1" stop-color="white"/>
</linearGradient>
<linearGradient id="paint6_linear_203_5" x1="276.456" y1="142" x2="276.456" y2="80" gradientUnits="userSpaceOnUse">
<stop stop-color="#1F1F1F"/>
<stop offset="1" stop-color="white"/>
</linearGradient>
<linearGradient id="paint7_linear_203_5" x1="276.456" y1="142" x2="276.456" y2="80" gradientUnits="userSpaceOnUse">
<stop stop-color="#1F1F1F"/>
<stop offset="1" stop-color="white"/>
</linearGradient>
<linearGradient id="paint8_linear_203_5" x1="276.456" y1="142" x2="276.456" y2="2" gradientUnits="userSpaceOnUse">
<stop stop-color="#A8A8A8"/>
<stop offset="1"/>
</linearGradient>
<linearGradient id="paint9_linear_203_5" x1="276.456" y1="142" x2="276.456" y2="2" gradientUnits="userSpaceOnUse">
<stop stop-color="#A8A8A8"/>
<stop offset="1"/>
</linearGradient>
<linearGradient id="paint10_linear_203_5" x1="276.456" y1="142" x2="276.456" y2="2" gradientUnits="userSpaceOnUse">
<stop stop-color="#A8A8A8"/>
<stop offset="1"/>
</linearGradient>
<linearGradient id="paint11_linear_203_5" x1="276.456" y1="142" x2="276.456" y2="2" gradientUnits="userSpaceOnUse">
<stop stop-color="#A8A8A8"/>
<stop offset="1"/>
</linearGradient>
<linearGradient id="paint12_linear_203_5" x1="276.456" y1="142" x2="276.456" y2="2" gradientUnits="userSpaceOnUse">
<stop stop-color="#A8A8A8"/>
<stop offset="1"/>
</linearGradient>
<linearGradient id="paint13_linear_203_5" x1="276.456" y1="142" x2="276.456" y2="2" gradientUnits="userSpaceOnUse">
<stop stop-color="#A8A8A8"/>
<stop offset="1"/>
</linearGradient>
<linearGradient id="paint14_linear_203_5" x1="276.456" y1="142" x2="276.456" y2="2" gradientUnits="userSpaceOnUse">
<stop stop-color="#A8A8A8"/>
<stop offset="1"/>
</linearGradient>
<linearGradient id="paint15_linear_203_5" x1="276.456" y1="142" x2="276.456" y2="2" gradientUnits="userSpaceOnUse">
<stop stop-color="#A8A8A8"/>
<stop offset="1"/>
</linearGradient>
</defs>
</svg>
